<?xml version="1.0" encoding="UTF-8"?>
<svg id="_图层_1" data-name="图层 1" xmlns="http://www.w3.org/2000/svg" viewBox="0 0 120 24">
  <defs>
    <style>
      .cls-1 {
        fill: #000;
        stroke-width: 0px;
      }
    </style>
  </defs>
  <polygon class="cls-1" points="18.82 7.7 18.82 16.18 19.99 15.5 19.99 9.72 26.4 13.43 26.4 20.56 21.15 17.53 23.57 16.13 23.57 14.78 23.57 14.78 18.82 17.53 26.99 22.25 27.58 21.91 35.16 17.53 30.4 14.78 30.4 16.13 32.82 17.53 27.58 20.56 27.58 13.43 33.99 9.72 33.99 15.5 35.16 16.18 35.16 7.7 26.99 12.42 18.82 7.7"/>
  <polygon class="cls-1" points="26.4 4.67 26.4 8.48 27.57 8.48 27.58 8.48 27.58 4.67 32.82 7.7 33.99 7.03 33.99 7.03 26.99 2.98 19.99 7.03 21.15 7.7 26.4 4.67"/>
  <path class="cls-1" d="M46.6,8.26h-5.54v1.4h5.54c.73,0,1.33.6,1.33,1.33s-.6,1.33-1.33,1.33h-5.54v1.4h5.54c.73,0,1.33.6,1.33,1.33s-.6,1.33-1.33,1.33h-5.54v1.4h5.54c1.5,0,2.73-1.22,2.73-2.73,0-.81-.36-1.53-.92-2.03.56-.5.92-1.22.92-2.03,0-1.5-1.22-2.73-2.73-2.73Z"/>
  <rect class="cls-1" x="54.45" y="8.26" width="7.09" height="1.4"/>
  <rect class="cls-1" x="51.16" y="8.28" width="1.4" height="9.59"/>
  <rect class="cls-1" x="63.46" y="8.28" width="1.4" height="9.59"/>
  <rect class="cls-1" x="57.29" y="10.5" width="1.4" height="7.37"/>
  <rect class="cls-1" x="94.09" y="8.26" width="7.09" height="1.4"/>
  <rect class="cls-1" x="96.94" y="10.5" width="1.4" height="7.37"/>
  <path class="cls-1" d="M71.82,10.83c0-1.42-1.15-2.57-2.57-2.57h-3.47v1.4h3.47c.65,0,1.17.53,1.17,1.17s-.53,1.17-1.17,1.17h-3.47v1.4h1.91l2.69,4.46h1.64l-2.69-4.47c1.38-.04,2.5-1.17,2.5-2.56Z"/>
  <path class="cls-1" d="M77.71,8.26c-2.62,0-4.76,2.13-4.76,4.76s2.13,4.76,4.76,4.76,4.76-2.13,4.76-4.76-2.13-4.76-4.76-4.76ZM77.71,16.37c-1.85,0-3.35-1.5-3.35-3.35s1.5-3.35,3.35-3.35,3.35,1.5,3.35,3.35-1.5,3.35-3.35,3.35Z"/>
  <path class="cls-1" d="M88.51,8.26c-2.62,0-4.76,2.13-4.76,4.76s2.13,4.76,4.76,4.76,4.76-2.13,4.76-4.76-2.13-4.76-4.76-4.76ZM88.51,16.37c-1.85,0-3.35-1.5-3.35-3.35s1.5-3.35,3.35-3.35,3.36,1.5,3.36,3.35-1.51,3.35-3.36,3.35Z"/>
</svg>